# xmcd
#
# Track frame offsets:
#	150
#	14022
#	27374
#	45924
#	64028
#	76086
#	94365
#	110443
#	129655
#	144039
#	162042
#	176813
#	194676
#	211915
#	233444
#	256065
#	270881
#	285182
#	299405
#	314345
#	341547
#
# Disc length: 4559 seconds
#
# Revision: 1
# Processed by: cddbd v1.5.2PL0 Copyright (c) Steve Scherf et al.
# Submitted via: audiograbber 1.83.01
#
DISCID=1c11cd15
DTITLE=Various Artist - Top Tunes Gal Country TTFP-45
DYEAR=1900
DGENRE=karaoke
TTITLE0=Irene Kelley - A Little Bluer Than That
TTITLE1=Meredith Edwards - A Rose Is A Rose
TTITLE2=Shannon Brown - Baby I Lied
TTITLE3=Martina McBride - Blessed (ttu)
TTITLE4=Patty Loveless - The Boys Are Back In Town
TTITLE5=Jo Dee Messina - Bring On The Rain (ttu)
TTITLE6=Lee Ann Womack - Does My Ring Burn Your Finger
TTITLE7=Carolyn Dawn Johnson - Georgia
TTITLE8=Terri Clark - Getting There
TTITLE9=Dixie Chicks, The - Hello Mr. Heartache
TTITLE10=Cyndi Thomson - I Always Like That Best
TTITLE11=Chely Wright - I Could Never Love You Enough
TTITLE12=Carolyn Dawn Johnson - I Don't Want You To Go (ttu)
TTITLE13=Sara Evans - I Keep Looking (ttu)
TTITLE14=Lee Ann Womack - I Know Why The River Runs
TTITLE15=Wilkinsons, The - I Wanna Be That Girl
TTITLE16=Dixie Chicks, The - If I Fall You're Going Down With Me
TTITLE17=Reba McEntire - I'm A Survivor (ttu)
TTITLE18=Chely Wright - Jezebel (ttu)
TTITLE19=Patty Loveless - The Last Thing On My Mind
TTITLE20=data - data
EXTD=
EXTT0=
EXTT1=
EXTT2=
EXTT3=
EXTT4=
EXTT5=
EXTT6=
EXTT7=
EXTT8=
EXTT9=
EXTT10=
EXTT11=
EXTT12=
EXTT13=
EXTT14=
EXTT15=
EXTT16=
EXTT17=
EXTT18=
EXTT19=
EXTT20=
PLAYORDER=
